<?xml version="1.0" encoding="UTF-8" standalone="no"?>
<!-- Created with Inkscape (http://www.inkscape.org/) -->

<svg
   xmlns:dc="http://purl.org/dc/elements/1.1/"
   xmlns:cc="http://creativecommons.org/ns#"
   xmlns:rdf="http://www.w3.org/1999/02/22-rdf-syntax-ns#"
   xmlns:svg="http://www.w3.org/2000/svg"
   xmlns="http://www.w3.org/2000/svg"
   xmlns:sodipodi="http://sodipodi.sourceforge.net/DTD/sodipodi-0.dtd"
   xmlns:inkscape="http://www.inkscape.org/namespaces/inkscape"
   width="520"
   height="450"
   id="svg2"
   version="1.1"
   inkscape:version="0.48.4 r9939"
   sodipodi:docname="railtrack-baselayout.svg">
  <defs
     id="defs4" />
  <sodipodi:namedview
     id="base"
     pagecolor="#ffffff"
     bordercolor="#666666"
     borderopacity="1.0"
     inkscape:pageopacity="0.0"
     inkscape:pageshadow="2"
     inkscape:zoom="1.382783"
     inkscape:cx="283.2432"
     inkscape:cy="231.51652"
     inkscape:document-units="px"
     inkscape:current-layer="svg2"
     showgrid="true"
     inkscape:snap-smooth-nodes="true"
     inkscape:object-paths="true"
     inkscape:object-nodes="true"
     inkscape:snap-midpoints="true"
     inkscape:snap-grids="true"
     inkscape:window-width="1440"
     inkscape:window-height="824"
     inkscape:window-x="0"
     inkscape:window-y="24"
     inkscape:window-maximized="1"
     showguides="true"
     inkscape:snap-nodes="true"
     inkscape:snap-global="false"
     inkscape:snap-to-guides="false"
     inkscape:snap-bbox="true"
     inkscape:bbox-paths="true">
    <inkscape:grid
       type="xygrid"
       id="grid2985"
       empspacing="2"
       visible="true"
       enabled="true"
       snapvisiblegridlinesonly="true"
       spacingx="5px"
       spacingy="5px" />
  </sodipodi:namedview>
  <metadata
     id="metadata7">
    <rdf:RDF>
      <cc:Work
         rdf:about="">
        <dc:format>image/svg+xml</dc:format>
        <dc:type
           rdf:resource="http://purl.org/dc/dcmitype/StillImage" />
        <dc:title />
      </cc:Work>
    </rdf:RDF>
  </metadata>
  <g
     style="display:inline"
     inkscape:label="switch_2_link"
     id="layer_switch_2_link"
     inkscape:groupmode="layer"
     sodipodi:insensitive="true">
    <path
       sodipodi:nodetypes="cccccc"
       inkscape:connector-curvature="0"
       id="path3953"
       d="m 475,130 40,-10 0,-75 -45,0 -25,50 c 15,5 25,15 30,35 z"
       style="fill:#ba00bc;fill-opacity:1;stroke:none" />
    <text
       sodipodi:linespacing="125%"
       id="text3955"
       y="70"
       x="480"
       style="font-size:20px;font-style:normal;font-weight:normal;line-height:125%;letter-spacing:0px;word-spacing:0px;fill:#ffffff;fill-opacity:1;stroke:none;font-family:Sans"
       xml:space="preserve"><tspan
         style="font-weight:normal;fill:#ffffff;fill-opacity:1;-inkscape-font-specification:Sans"
         y="70"
         x="480"
         id="tspan3957"
         sodipodi:role="line">W2</tspan></text>
  </g>
  <g
     style="display:inline"
     inkscape:label="switch_2_1"
     id="layer_switch_2_1"
     inkscape:groupmode="layer">
    <path
       inkscape:connector-curvature="0"
       id="path3965"
       d="m 455.46325,74.337045 c 9.47839,3.429958 18.42308,8.124964 26.28125,14.65625 9.30375,9.48104 15.47302,21.546585 19.0625,34.375005 l -9.65625,2.21875 c -3.31151,-11.44546 -8.98709,-22.31673 -17.6875,-30.406255 -6.88185,-5.233294 -14.49903,-9.036529 -22.5,-11.84375 l 4.5,-9 z"
       style="font-size:medium;font-style:normal;font-variant:normal;font-weight:normal;font-stretch:normal;text-indent:0;text-align:start;text-decoration:none;line-height:normal;letter-spacing:normal;word-spacing:normal;text-transform:none;direction:ltr;block-progression:tb;writing-mode:lr-tb;text-anchor:start;baseline-shift:baseline;color:#000000;fill:#00ff01;fill-opacity:1;stroke:none;stroke-width:2;marker:none;visibility:visible;display:inline;overflow:visible;enable-background:accumulate;font-family:Sans;-inkscape-font-specification:Sans" />
  </g>
  <g
     style="display:inline"
     inkscape:label="switch_2_0"
     id="layer_switch_2_0"
     inkscape:groupmode="layer">
    <path
       inkscape:connector-curvature="0"
       id="path3961"
       d="m 459.81921,65.542384 c 11.40212,7.886444 21.17392,18.036696 28.1875,30.375 0.31385,0.475678 0.63114,1.092076 0.9375,1.75 5.40553,7.724866 9.27536,16.492956 11.84375,25.656246 l -9.6875,2.21875 c -3.44802,-11.80404 -9.15747,-23.03247 -16.21875,-30.093746 -4.6875,-6.25 -9.92094,-12.388813 -15.65625,-17.90625 -0.0426,-0.04099 -0.0823,-0.08408 -0.125,-0.125 -1.23525,-0.990965 -2.495,-1.951153 -3.78125,-2.875 l 4.5,-9 z"
       style="font-size:medium;font-style:normal;font-variant:normal;font-weight:normal;font-stretch:normal;text-indent:0;text-align:start;text-decoration:none;line-height:normal;letter-spacing:normal;word-spacing:normal;text-transform:none;direction:ltr;block-progression:tb;writing-mode:lr-tb;text-anchor:start;baseline-shift:baseline;color:#000000;fill:#ff0101;fill-opacity:1;stroke:none;stroke-width:2;marker:none;visibility:visible;display:inline;overflow:visible;enable-background:accumulate;font-family:Sans;-inkscape-font-specification:Sans" />
  </g>
  <g
     inkscape:groupmode="layer"
     id="layer_switch_1_link"
     inkscape:label="switch_1_link"
     style="display:inline">
    <path
       style="fill:#ba00bc;fill-opacity:1;stroke:none"
       d="M 45,130 5,120 5,45 50,45 75,95 c -15,5 -25,15 -30,35 z"
       id="path3945"
       inkscape:connector-curvature="0"
       sodipodi:nodetypes="cccccc" />
    <text
       xml:space="preserve"
       style="font-size:20px;font-style:normal;font-weight:normal;line-height:125%;letter-spacing:0px;word-spacing:0px;fill:#ffffff;fill-opacity:1;stroke:none;font-family:Sans"
       x="11.570868"
       y="70.692474"
       id="text3947"
       sodipodi:linespacing="125%"><tspan
         sodipodi:role="line"
         id="tspan3949"
         x="11.570868"
         y="70.692474"
         style="font-weight:normal;fill:#ffffff;fill-opacity:1;-inkscape-font-specification:Sans">W1</tspan></text>
  </g>
  <g
     inkscape:groupmode="layer"
     id="layer_switch_1_0"
     inkscape:label="switch_1_0"
     style="display:inline">
    <path
       style="font-size:medium;font-style:normal;font-variant:normal;font-weight:normal;font-stretch:normal;text-indent:0;text-align:start;text-decoration:none;line-height:normal;letter-spacing:normal;word-spacing:normal;text-transform:none;direction:ltr;block-progression:tb;writing-mode:lr-tb;text-anchor:start;baseline-shift:baseline;color:#000000;fill:#ff0101;fill-opacity:1;stroke:none;stroke-width:2;marker:none;visibility:visible;display:inline;overflow:visible;enable-background:accumulate;font-family:Sans;-inkscape-font-specification:Sans"
       d="m 60.0625,65.09375 c -11.40212,7.886444 -21.173924,18.036696 -28.1875,30.375 -0.313848,0.475678 -0.631142,1.092076 -0.9375,1.75 -5.405534,7.72487 -9.275356,16.49296 -11.84375,25.65625 l 9.6875,2.21875 C 32.229269,113.28971 37.938723,102.06128 45,95 c 4.6875,-6.25 9.92094,-12.388813 15.65625,-17.90625 0.04261,-0.04099 0.08234,-0.08408 0.125,-0.125 1.235246,-0.990965 2.494997,-1.951153 3.78125,-2.875 l -4.5,-9 z"
       id="path2987-97"
       inkscape:connector-curvature="0" />
  </g>
  <g
     inkscape:groupmode="layer"
     id="layer_switch_1_1"
     inkscape:label="switch_1_1"
     style="display:inline">
    <path
       style="font-size:medium;font-style:normal;font-variant:normal;font-weight:normal;font-stretch:normal;text-indent:0;text-align:start;text-decoration:none;line-height:normal;letter-spacing:normal;word-spacing:normal;text-transform:none;direction:ltr;block-progression:tb;writing-mode:lr-tb;text-anchor:start;baseline-shift:baseline;color:#000000;fill:#00ff01;fill-opacity:1;stroke:none;stroke-width:2;marker:none;visibility:visible;display:inline;overflow:visible;enable-background:accumulate;font-family:Sans;-inkscape-font-specification:Sans"
       d="M 64.40625,73.84375 C 54.927864,77.273708 45.98317,81.968714 38.125,88.5 28.821251,97.981038 22.651976,110.04658 19.0625,122.875 l 9.65625,2.21875 c 3.311515,-11.44546 8.987093,-22.31673 17.6875,-30.40625 6.881849,-5.233294 14.499028,-9.036529 22.5,-11.84375 l -4.5,-9 z"
       id="path2987-97-1"
       inkscape:connector-curvature="0" />
  </g>
  <g
     inkscape:groupmode="layer"
     id="layer_bridges"
     inkscape:label="bridges"
     style="display:inline"
     transform="translate(0,-602.36218)">
    <path
       style="fill:none;stroke:#000000;stroke-width:1px;stroke-linecap:butt;stroke-linejoin:miter;stroke-opacity:1"
       d="m 115,992.36218 5,5 120,0 5,-5"
       id="path3016"
       inkscape:connector-curvature="0"
       sodipodi:nodetypes="cccc" />
    <path
       style="fill:none;stroke:#000000;stroke-width:1px;stroke-linecap:butt;stroke-linejoin:miter;stroke-opacity:1"
       d="m 115,1012.3622 5,-5 120,0 5,5"
       id="path3018"
       inkscape:connector-curvature="0"
       sodipodi:nodetypes="cccc" />
    <path
       style="fill:none;stroke:#000000;stroke-width:1px;stroke-linecap:butt;stroke-linejoin:miter;stroke-opacity:1"
       d="m 175,712.36218 -5,-5 -50,0 c -16.18199,-0.0247 -28.230962,3.28976 -40.883883,13.93934 l -0.07322,6.02144"
       id="path3810"
       inkscape:connector-curvature="0"
       sodipodi:nodetypes="ccccc" />
    <path
       style="fill:none;stroke:#000000;stroke-width:1px;stroke-linecap:butt;stroke-linejoin:miter;stroke-opacity:1"
       d="m 175,692.36218 -5,5 -50,0 c -17.47487,0 -30.176778,2.12133 -48.762564,16.59099 l -5.999999,0"
       id="path3816"
       inkscape:connector-curvature="0"
       sodipodi:nodetypes="ccccc" />
  </g>
  <g
     inkscape:label="basetrack"
     inkscape:groupmode="layer"
     id="layer_basetrack"
     transform="translate(0,-602.36218)"
     style="display:inline">
    <path
       style="fill:none;stroke:#000000;stroke-width:2;stroke-linecap:butt;stroke-linejoin:miter;stroke-miterlimit:4;stroke-opacity:1;stroke-dasharray:none"
       d="m 120,1032.3622 c 50,0 95,-25 95,-75.00002 0,-40 -10,-55 -25,-90 -15,-35 -25,-50 -25,-90 0,-45 45,-75 95,-75"
       id="path3846"
       inkscape:connector-curvature="0"
       sodipodi:nodetypes="cszsc" />
    <rect
       style="fill:#ffffff;fill-opacity:1;stroke:none;display:inline"
       id="rect3818"
       width="120"
       height="10"
       x="120"
       y="997.36218" />
    <path
       style="fill:none;stroke:#000000;stroke-width:2;stroke-linecap:butt;stroke-linejoin:miter;stroke-miterlimit:4;stroke-opacity:1;stroke-dasharray:none"
       d="m 120,1032.3622 280,0 c 65,0 100,-45.00002 100,-100.00002 l 0,-160 c 0,-32.5 0,-45 -15,-70 -12.27837,-20.46394 -52.5,-30 -85,-30 l -280,0 c -32.5,0 -72.72163,9.53606 -85,30 -15,25 -15,37.5 -15,70 l 0,160 c 0,65 35,100.00002 100,100.00002 z"
       id="path2987"
       inkscape:connector-curvature="0"
       sodipodi:nodetypes="ccccsccsccc" />
    <path
       style="fill:none;stroke:#000000;stroke-width:2;stroke-linecap:butt;stroke-linejoin:miter;stroke-miterlimit:4;stroke-opacity:1;stroke-dasharray:none"
       d="m 35,702.36218 c 20,-35 55,-50 95,-50 70,0 260,0 260,0 45.74405,-0.50595 75,15 95,50"
       id="path2989"
       inkscape:connector-curvature="0"
       sodipodi:nodetypes="cccc" />
    <path
       style="fill:none;stroke:#000000;stroke-width:2;stroke-linecap:butt;stroke-linejoin:miter;stroke-miterlimit:4;stroke-opacity:1;stroke-dasharray:none"
       d="m 50,932.36218 0,-160 c 0,-40 30,-70 70,-70 l 280,0 c 40,0 70,30 70,70 l 0,160 c 0,40 -30,70.00002 -70,70.00002 l -280,0 c -40,0 -69.94255,-30.47476 -70,-70.00002 z"
       id="path2991"
       inkscape:connector-curvature="0"
       sodipodi:nodetypes="ccccccccc" />
    <path
       style="fill:none;stroke:#000000;stroke-width:2;stroke-linecap:butt;stroke-linejoin:miter;stroke-miterlimit:4;stroke-opacity:1;stroke-dasharray:none"
       d="m 500,792.36218 c 0,30 -5.37224,42.60567 -15,60 -9.62776,17.39433 -15,30 -15,60"
       id="path3012"
       inkscape:connector-curvature="0"
       sodipodi:nodetypes="czc" />
    <path
       style="fill:none;stroke:#000000;stroke-width:2;stroke-linecap:butt;stroke-linejoin:miter;stroke-miterlimit:4;stroke-opacity:1;stroke-dasharray:none"
       d="m 20,632.36218 250,0 c 23.33819,-10e-4 30,0 50,10 20,10 24.86199,10 50,10"
       id="path3014"
       inkscape:connector-curvature="0"
       sodipodi:nodetypes="cczc" />
    <path
       style="fill:none;stroke:#000000;stroke-width:2;stroke-linecap:butt;stroke-linejoin:miter;stroke-miterlimit:4;stroke-opacity:1;stroke-dasharray:none"
       d="m 130,652.36218 c 25,1e-5 30,0 50,-10 20,-10 25,-9.99999 50,-10"
       id="path3848"
       inkscape:connector-curvature="0"
       sodipodi:nodetypes="czc" />
  </g>
</svg>
