<?xml version="1.0" encoding="UTF-8" standalone="no"?>
<!-- Created with Inkscape (http://www.inkscape.org/) -->

<svg
   xmlns:dc="http://purl.org/dc/elements/1.1/"
   xmlns:cc="http://creativecommons.org/ns#"
   xmlns:rdf="http://www.w3.org/1999/02/22-rdf-syntax-ns#"
   xmlns:svg="http://www.w3.org/2000/svg"
   xmlns="http://www.w3.org/2000/svg"
   xmlns:sodipodi="http://sodipodi.sourceforge.net/DTD/sodipodi-0.dtd"
   xmlns:inkscape="http://www.inkscape.org/namespaces/inkscape"
   width="200.06233"
   height="115.35954"
   id="svg2"
   version="1.1"
   inkscape:version="0.48.4 r9939"
   sodipodi:docname="leisten_Starter.svg">
  <defs
     id="defs4" />
  <sodipodi:namedview
     id="base"
     pagecolor="#ffffff"
     bordercolor="#666666"
     borderopacity="1.0"
     inkscape:pageopacity="0.0"
     inkscape:pageshadow="2"
     inkscape:zoom="0.46970982"
     inkscape:cx="197.26481"
     inkscape:cy="-60.667538"
     inkscape:document-units="px"
     inkscape:current-layer="layer1"
     showgrid="false"
     showguides="true"
     inkscape:guide-bbox="true"
     inkscape:window-width="1438"
     inkscape:window-height="823"
     inkscape:window-x="1"
     inkscape:window-y="24"
     inkscape:window-maximized="1"
     fit-margin-top="0"
     fit-margin-left="0"
     fit-margin-right="0"
     fit-margin-bottom="0" />
  <metadata
     id="metadata7">
    <rdf:RDF>
      <cc:Work
         rdf:about="">
        <dc:format>image/svg+xml</dc:format>
        <dc:type
           rdf:resource="http://purl.org/dc/dcmitype/StillImage" />
        <dc:title />
      </cc:Work>
    </rdf:RDF>
  </metadata>
  <g
     inkscape:label="Ebene 1"
     inkscape:groupmode="layer"
     id="layer1"
     transform="translate(-374.51883,-276.59159)">
    <g
       id="g3024"
       transform="matrix(0.1397183,0,0,0.1397183,327.01194,279.86138)">
      <path
         id="path4"
         d="m 502.29976,-8.4289784 c -3.6193,0.11232 -7.5172,1.4493 -11.938,4.9375 -10.83,-4.1763 -21.33,-5.6271 -30.72,2.87510001 -14.5,-1.88080001 -19.212,2.00019999 -22.782,6.53119999 -3.183,-0.066 -23.819,-3.272 -33.282,10.8440004 -23.781,-2.814 -31.297,13.988 -22.781,29.656 -4.8569,7.519 -9.8895,14.947 1.4688,29.281 -4.018,7.9835 -1.5274,16.644 7.9375,27.124998 -2.4979,11.223 2.4121,19.141 11.219,25.312 -1.6471,15.358 14.084,24.287 18.781,27.469 1.8037,8.9487 5.5629,17.393 23.531,22.062 2.9632,13.336 13.762,15.639 24.219,18.438 -34.562,20.09 -64.201,46.523 -64,111.38 l -5.0625,9.0312 c -39.63,24.1 -75.285,101.56 -19.53,164.52 3.6419,19.708 9.7496,33.864 15.188,49.531 8.1338,63.131 61.218,92.692 75.219,96.188 20.517,15.628 42.368,30.457 71.938,40.844 27.875,28.749 58.074,39.706 88.438,39.688 0.44515,-2.8e-4 0.89853,0.005 1.3438,0 30.364,0.0189 60.562,-10.938 88.438,-39.688 29.569,-10.387 51.421,-25.216 71.938,-40.844 14.001,-3.4959 67.085,-33.057 75.219,-96.188 5.4379,-15.667 11.546,-29.823 15.188,-49.531 55.754,-62.965 20.1,-140.43 -19.531,-164.53 l -5.07,-9.03 c 0.20067,-64.852 -29.438,-91.285 -64,-111.38 10.457,-2.7984 21.256,-5.1014 24.219,-18.438 17.968,-4.6698 21.728,-13.114 23.531,-22.062 4.6978,-3.1813 20.428,-12.111 18.781,-27.469 8.8067,-6.1716 13.717,-14.09 11.219,-25.312 9.4649,-10.480998 11.956,-19.140998 7.9375,-27.124998 11.36,-14.328 6.32,-21.756 1.47,-29.275 8.51,-15.668 1,-32.47 -22.79,-29.656 -9.46,-14.1160004 -30.09,-10.9100004 -33.28,-10.8440004 -3.57,-4.531 -8.28,-8.412 -22.78,-6.53119999 -9.39,-8.50220001 -19.89,-7.05140001 -30.72,-2.87500001 -12.86,-10.1479996 -21.37,-2.0133 -31.09,1.0624 -15.57,-5.0877 -19.13,1.88100001 -26.78,4.7188 -16.98,-3.5881 -22.14,4.224 -30.28,12.4690004 l -9.4688,-0.1875 c -25.611,15.093 -38.334,45.826 -42.844,61.625 -4.5121,-15.802 -17.206,-46.535 -42.812,-61.625 l -9.4688,0.1875 c -8.15,-8.2450004 -13.31,-16.0570004 -30.29,-12.4690004 -7.65,-2.83779999 -11.2,-9.8065 -26.78,-4.7188 -6.3797,-2.0185 -12.247,-6.2144 -19.156,-6 z"
         inkscape:connector-curvature="0"
         style="fill:#000000" />
      <path
         id="path6"
         d="m 451.30976,57.970822 c 67.948,35.031 107.45,63.368998 129.09,87.503998 -11.082,44.418 -68.896,46.445 -90.036,45.199 4.3284,-2.0147 7.9399,-4.4278 9.2205,-8.1357 -5.3045,-3.7698 -24.113,-0.39719 -37.244,-7.7742 5.0441,-1.045 7.4035,-2.063 9.7629,-5.7854 -12.406,-3.9567 -25.769,-7.3664 -33.628,-13.921 4.2413,0.0524 8.2012,0.9488 13.74,-2.8927 -11.112,-5.9882 -22.969,-10.734 -32.181,-19.887 5.7452,-0.14063 11.939,-0.0568 13.74,-2.1695 -10.17,-6.3007 -18.751,-13.308 -25.854,-20.972 8.04,0.97052 11.435,0.13478 13.379,-1.2656 -7.6878,-7.874198 -17.418,-14.522998 -22.057,-24.225998 5.9696,2.0575 11.431,2.8451 15.368,-0.1808 -2.6124,-5.8935 -13.805,-9.3696 -20.249,-23.142 6.2844,0.60938 12.95,1.3711 14.283,0 -2.917,-11.884 -7.922,-18.565 -12.831,-25.487 13.45,-0.2 33.828,0.052 32.905,-1.085 l -8.3165,-8.4973 c 13.138,-3.5372 26.581,0.56816 36.34,3.6159 4.3819,-3.4577 -0.0776,-7.83 -5.4238,-12.294 11.165,1.4906 21.254,4.0574 30.373,7.5934 4.8724,-4.3993 -3.1639,-8.7987 -7.051,-13.198 17.249,3.2726 24.557,7.8707 31.82,12.475 5.2694,-5.0508 0.30166,-9.3433 -3.2543,-13.7400004 13.006,4.8170004 19.705,11.0360004 26.758,17.1750004 2.3912,-3.2271 6.0749,-5.5924 1.6272,-13.379 9.2342,5.3227 16.189,11.595 21.334,18.622 5.7134,-3.6379 3.4039,-8.613 3.4351,-13.198 9.5966,7.8065 15.687,16.114 23.142,24.226 1.5017,-1.0934 2.8166,-4.8017 3.9775,-10.667 22.895,22.212 55.246,78.157998 8.3165,100.339998 -39.94,-32.939998 -87.64,-56.882998 -140.5,-74.843998 z"
         inkscape:connector-curvature="0"
         style="fill:#75a928" />
      <path
         id="path8"
         d="m 811.83976,57.970822 c -67.94,35.034 -107.44,63.363998 -129.08,87.503998 11.082,44.418 68.896,46.445 90.036,45.199 -4.3284,-2.0147 -7.9399,-4.4278 -9.2205,-8.1357 5.3045,-3.7698 24.113,-0.39719 37.244,-7.7742 -5.0441,-1.045 -7.4035,-2.063 -9.7629,-5.7854 12.406,-3.9567 25.769,-7.3664 33.628,-13.921 -4.2413,0.0524 -8.2012,0.9488 -13.74,-2.8927 11.112,-5.9882 22.969,-10.734 32.181,-19.887 -5.7452,-0.14063 -11.939,-0.0568 -13.74,-2.1695 10.17,-6.3007 18.751,-13.308 25.854,-20.972 -8.04,0.97052 -11.435,0.13478 -13.379,-1.2656 7.6878,-7.874198 17.418,-14.522998 22.057,-24.225998 -5.9696,2.0575 -11.431,2.8451 -15.368,-0.1808 2.6124,-5.8935 13.805,-9.3696 20.249,-23.142 -6.2844,0.60938 -12.95,1.3711 -14.283,0 2.9223,-11.889 7.9275,-18.57 12.836,-25.492 -13.45,-0.19973 -33.828,0.0523 -32.905,-1.0848 l 8.3165,-8.4973 c -13.138,-3.5372 -26.581,0.56816 -36.34,3.6159 -4.3819,-3.4577 0.0776,-7.83 5.4238,-12.294 -11.165,1.4906 -21.254,4.0574 -30.373,7.5934 -4.8724,-4.3993 3.1639,-8.7987 7.051,-13.198 -17.249,3.2726 -24.557,7.8707 -31.82,12.475 -5.2694,-5.0508 -0.30166,-9.3433 3.2543,-13.7400004 -13.006,4.8170004 -19.705,11.0360004 -26.758,17.1750004 -2.3912,-3.2271 -6.0749,-5.5924 -1.6272,-13.379 -9.2342,5.3227 -16.189,11.595 -21.334,18.622 -5.7134,-3.6379 -3.4039,-8.613 -3.4351,-13.198 -9.5966,7.8065 -15.687,16.114 -23.142,24.226 -1.5017,-1.0934 -2.8166,-4.8017 -3.9775,-10.667 -22.895,22.212 -55.246,78.157998 -8.3165,100.339998 39.919,-32.946998 87.616,-56.887998 140.48,-74.848998 z"
         inkscape:connector-curvature="0"
         style="fill:#75a928" />
      <path
         id="path10"
         d="m 713.8609,510.27658 a 81.389935,75.051403 0 1 1 -162.7776,0 81.389935,75.051403 0 1 1 162.7776,0 z"
         inkscape:connector-curvature="0"
         style="fill:#bc1142" />
      <path
         id="path12"
         d="M 585.37799,295.88152 A 72.998838,86.129673 34.034226 1 1 490.41016,439.59378 72.998838,86.129673 34.034226 0 1 585.37799,295.88152 z"
         inkscape:connector-curvature="0"
         style="fill:#bc1142" />
      <path
         id="path14"
         d="M 676.40176,291.88152 A 86.129673,72.998838 55.965774 1 0 771.36959,435.59378 86.129673,72.998838 55.965774 0 0 676.40176,291.88152 z"
         inkscape:connector-curvature="0"
         style="fill:#bc1142" />
      <path
         id="path16"
         d="m 416.82976,332.00482 c 36.41,-9.76 12.292,150.63 -17.333,137.47 -32.587,-26.21 -43.083,-102.97 17.333,-137.47 z"
         inkscape:connector-curvature="0"
         style="fill:#bc1142" />
      <path
         id="path18"
         d="m 837.59976,330.00482 c -36.414,-9.7569 -12.292,150.64 17.333,137.48 32.587,-26.213 43.083,-102.98 -17.333,-137.48 z"
         inkscape:connector-curvature="0"
         style="fill:#bc1142" />
      <path
         id="path20"
         d="m 713.88976,210.56482 c 62.835,-10.61 115.12,26.722 113.01,94.858 -2.0669,26.121 -136.16,-90.969 -113.01,-94.858 z"
         inkscape:connector-curvature="0"
         style="fill:#bc1142" />
      <path
         id="path22"
         d="m 540.27976,208.56482 c -62.84,-10.61 -115.12,26.73 -113.01,94.86 2.067,26.12 136.16,-90.97 113.01,-94.86 z"
         inkscape:connector-curvature="0"
         style="fill:#bc1142" />
      <path
         id="path24"
         d="m 630.53976,192.67482 c -37.503,-0.97548 -73.495,27.834 -73.582,44.544 -0.10462,20.304 29.651,41.093 73.837,41.62 45.123,0.32321 73.916,-16.64 74.061,-37.594 0.16484,-23.74 -41.039,-48.937 -74.317,-48.571 z"
         inkscape:connector-curvature="0"
         style="fill:#bc1142" />
      <path
         id="path26"
         d="m 632.82976,609.03482 c 32.697,-1.4271 76.571,10.532 76.657,26.396 0.5427,15.405 -39.79,50.211 -78.826,49.538 -40.427,1.7439 -80.069,-33.116 -79.55,-45.199 -0.60506,-17.716 49.226,-31.548 81.719,-30.735 z"
         inkscape:connector-curvature="0"
         style="fill:#bc1142" />
      <path
         id="path28"
         d="m 512.05976,515.01482 c 23.279,28.046 33.891,77.319 14.464,91.844 -18.379,11.088 -63.012,6.5216 -94.736,-39.052 -21.395,-38.242 -18.638,-77.157 -3.6159,-88.589 22.464,-13.684 57.173,4.799 83.889,35.797 z"
         inkscape:connector-curvature="0"
         style="fill:#bc1142" />
      <path
         id="path30"
         d="m 748.93976,506.12482 c -25.187,29.502 -39.212,83.31 -20.838,100.64 17.568,13.464 64.729,11.582 99.566,-36.756 25.296,-32.465 16.82,-86.682 2.3708,-101.08 -21.464,-16.602 -52.277,4.6449 -81.099,37.188 z"
         inkscape:connector-curvature="0"
         style="fill:#bc1142" />
    </g>
    <g
       id="g7976"
       transform="translate(-127.20731,-38.011653)">
      <path
         style="fill:#959d98"
         d="m 622.77193,362.25315 0,-47.31112 30.71531,-0.33879 43.55117,0.5078 4.75,0.0306 0,5.91667 -1.25,6.5 0,1.16666 1.25,56"
         id="path7990"
         inkscape:connector-curvature="0"
         sodipodi:nodetypes="ccccccccc" />
      <path
         style="fill:#918574"
         d="m 582.13768,335.61431 c 3.45876,-1.29831 5.75278,-3.05819 8,-6.13727 1.73288,-2.37434 4.14473,-4.59029 5.35967,-4.92432 2.60286,-0.71564 5.15135,-4.01019 3.34772,-3.41112 l -3.13187,1.04023 7.46798,-3.86678 c -0.89328,1.44536 7.24646,0.0309 11.05905,-1.92176 2.50474,-1.28282 5.5341,-1.37851 20,-0.63175 9.37648,0.48403 28.32649,0.88006 42.11112,0.88006 l 25.06298,0 0.20217,3.00975 c 0.19125,2.84719 -0.0791,3.07657 -5.00588,4.24689 -3.7604,0.89326 -5.39705,0.93134 -5.88797,0.137 -0.49436,-0.79989 -1.24252,-0.79904 -2.74135,0.003 -2.55319,1.36642 -10.85787,1.45439 -11.68026,0.12373 -0.38132,-0.61698 -1.37682,-0.52445 -2.68967,0.25 -1.65518,0.97638 -2.1775,0.97216 -2.53698,-0.0205 -0.62599,-1.72858 -2.94949,-1.56933 -3.64764,0.25 -0.74586,1.94369 -2.63837,1.94369 -2.63837,0 0,-1.95142 -3.6128,-1.95142 -4.36163,0 -0.7512,1.9576 -4.63837,1.9576 -4.63837,0 0,-0.825 -0.45,-1.5 -1,-1.5 -0.55,0 -1,0.675 -1,1.5 0,1.94916 -2.89041,1.94916 -3.63837,0 -0.74648,-1.9453 -4.97678,-1.9453 -5.72326,0 -0.74796,1.94916 -3.63837,1.94916 -3.63837,0 0,-2.88996 -4.41552,-1.71746 -5.86513,1.55742 -0.74434,1.68159 -1.19169,3.218 -0.99411,3.41426 0.19758,0.19625 14.53424,0.64543 31.85924,0.99817 17.325,0.35274 32.59599,0.59036 33.75,1.1048"
         id="path7988"
         inkscape:connector-curvature="0"
         sodipodi:nodetypes="csssccssscssscssssssssssssscsc" />
      <path
         style="fill:#708991"
         d="m 583.00397,336.20517 c 3.14374,-1.24744 5.61874,-2.58465 5.5,-2.97158 -0.46781,-1.52435 4.86206,-7.98382 7.63254,-9.25014 1.61453,-0.73796 2.90988,-1.79175 2.87857,-2.34175 -0.0313,-0.55 0.39998,-1.55055 0.95843,-2.22344 -1.13033,0.0239 3.68828,-2.12626 3.20736,-1.10307 -0.89328,1.44535 7.24646,0.0309 11.05905,-1.92177 2.50474,-1.28282 5.5341,-1.37851 20,-0.63175 9.37648,0.48403 28.36852,0.88006 42.20453,0.88006 13.83601,0 24.6976,0.28303 24.13685,0.62895 -0.63633,0.39255 -0.53459,0.7906 0.27067,1.05902 0.71067,0.23689 0.95958,0.96503 0.55413,1.62105 -0.44517,0.7203 -3.57795,1.24379 -7.92705,1.32459 -6.6586,0.12373 -6.84243,0.18231 -2.48301,0.79131 5.73848,0.80165 6.76702,1.61356 3.18346,2.51298 -1.66269,0.4173 -2.97772,0.2315 -3.4194,-0.48315 -0.53079,-0.85885 -1.25449,-0.87395 -2.77911,-0.058 -1.13379,0.60678 -4.13052,1.10324 -6.6594,1.10324 -3.80882,0 -4.73614,-0.37351 -5.40302,-2.17626 l -0.80505,-2.17626 -0.56911,2.17626 c -0.71986,2.75278 -3.75634,2.89526 -3.75634,0.17626 0,-2.76224 -1.44879,-2.50518 -2.81805,0.5 -0.62649,1.375 -1.59872,2.5 -2.16051,2.5 -0.56179,0 -1.02144,-1.125 -1.02144,-2.5 0,-3.24077 -2.34145,-3.24077 -3.81805,0 -0.66818,1.46651 -1.97473,2.5 -3.16051,2.5 -2.30689,0 -2.42707,-0.37356 -0.98626,-3.06574 0.86584,-1.61784 0.70225,-1.93426 -1,-1.93426 -1.51966,0 -2.03518,0.65184 -2.03518,2.57332 0,3.28234 -3.34535,2.99021 -3.81955,-0.33354 -0.43498,-3.04886 -3.56502,-2.88591 -4.9985,0.26022 -1.49981,3.29174 -4.18195,3.29174 -4.18195,0 0,-2 -0.5,-2.5 -2.5,-2.5 -1.9165,0 -2.50742,0.52515 -2.5318,2.25 -0.0731,5.17336 -1.63654,5.74217 -16.07844,5.84968 -7.36437,0.0548 -14.51476,0.42143 -15.88976,0.81468 -2.72615,0.77968 37.3029,2.07641 64.5,2.08947 9.35,0.005 20.7125,0.29716 25.25,0.65038 l 8.25,0.64223 -0.37635,94.25061"
         id="path7986"
         inkscape:connector-curvature="0"
         sodipodi:nodetypes="ccscccssssssssssssscssssssssssssssssscscc" />
      <path
         style="fill:#5f6059"
         d="m 587.03466,334.54227 c 3.09148,-1.23795 4.74756,-2.50269 4.75,-3.62754 0.007,-3.34995 4.16752,-4.84293 12.89656,-4.62815 9.44118,0.2323 10.39835,1.81429 2.02451,3.34604 -4.75369,0.86955 -3.08979,1.06795 13.58268,1.61963 m -4.25046,-3.36065 c 0.63003,-1.89219 3.75047,-2.1612 3.75047,-0.32332 0,0.92763 -0.855,1.57332 -2.08333,1.57332 -1.22198,0 -1.91126,-0.51682 -1.66714,-1.25 z m 5.45245,-4.5 c 0.96722,-6.29444 1.86784,-7.25 6.8332,-7.25 5.10326,0 5.55854,1.1381 2.9514,7.37788 -1.41597,3.38889 -1.79827,3.62212 -5.93713,3.62212 l -4.42371,0 z m 14.29802,-3.68358 c 0,-1.08321 0.95115,-1.56642 3.08333,-1.56642 3.82597,0 3.48268,2.35554 -0.41045,2.81642 -1.89427,0.22425 -2.67288,-0.13988 -2.67288,-1.25 z m 10,-0.0664 c 0,-1.12782 0.70183,-1.53943 2.25,-1.31955 1.2375,0.17575 2.25,0.76955 2.25,1.31955 0,0.55 -1.0125,1.1438 -2.25,1.31955 -1.54817,0.21988 -2.25,-0.19173 -2.25,-1.31955 z m 8.22195,0.33415 c 0.51655,-1.54965 3.659,-1.81033 4.02805,-0.33415 0.1375,0.55 -0.81262,1.15037 -2.11138,1.33415 -1.61892,0.22908 -2.22156,-0.0853 -1.91667,-1 z m 7.77805,-0.33415 c 0,-1.02996 0.6554,-1.52043 1.75,-1.30963 2.10784,0.40593 1.97493,2.18068 -0.19718,2.63295 -0.90598,0.18865 -1.55282,-0.36259 -1.55282,-1.32332 z m 7,0.5 c 0,-0.55 0.45,-1 1,-1 0.55,0 1,0.45 1,1 0,0.55 -0.45,1 -1,1 -0.55,0 -1,-0.45 -1,-1 z m 11.25,0.35467 c -3.65501,-1.5244 -0.0114,-2.35467 10.33333,-2.35467 8.8211,0 11.48448,0.29808 11.16879,1.25 -0.42162,1.27131 -18.83448,2.21727 -21.50212,1.10467 z"
         id="path7984"
         inkscape:connector-curvature="0"
         sodipodi:nodetypes="ccsscsssssssscsssssssssssssssscssssssssss" />
      <path
         style="fill:#922522"
         d="m 637.45729,429.16412 c -58.50205,-0.50251 -60.88485,-0.59601 -62.2341,-2.4419 -1.31452,-1.79838 -1.51925,-1.81414 -3.24761,-0.25 -2.1567,1.95179 -4.31864,2.1379 -5.94478,0.51176 -0.87682,-0.87682 -1.53885,-0.84122 -2.72931,0.14678 -1.32516,1.09978 -1.96974,0.93045 -4.10923,-1.0795 l -2.53753,-2.38388 -1.75126,2.3217 c -1.67186,2.21643 -2.12604,2.28901 -10.0169,1.60068 -6.30246,-0.54977 -8.38603,-1.10426 -8.77257,-2.33459 -1.26342,-4.02144 -2.7955,-6.0517 -5.77934,-7.6586 -3.74381,-2.01618 -6.03599,-1.58864 -6.042,1.12695 -0.004,1.7726 -0.82677,1.91808 -10.84917,1.91808 -10.24805,0 -13.48152,-0.75316 -10.67642,-2.4868 0.87882,-0.54314 0.91576,-0.96043 0.12811,-1.44722 -2.90795,-1.79721 -0.31197,-2.38462 8.12339,-1.83811 l 9.23016,0.59799 -1.59472,-2.41293 c -1.17243,-1.77397 -2.67405,-2.49359 -5.67062,-2.71752 -3.61757,-0.27034 -4.19829,-0.67545 -5.16436,-3.60266 -0.61464,-1.86238 -2.16416,-3.7882 -3.55954,-4.42398 -1.35909,-0.61924 -2.47107,-1.81054 -2.47107,-2.64733 0,-2.18627 4.23914,-1.91592 6.95999,0.44386 1.38039,1.1972 3.57338,1.91615 5.61112,1.83955 2.7679,-0.10406 3.52564,-0.64362 4.39133,-3.12695 1.99242,-5.71547 8.44929,-16.2703 8.8262,-14.4279 0.44629,2.18156 2.78981,2.29093 3.60437,0.16821 0.84792,-2.20965 0.76145,-2.63171 -0.39301,-1.91821 -3.84452,2.37605 5.81817,-12.30255 13.24627,-20.12241 12.16493,-12.8065 26.08946,-21.63152 44.26663,-28.05507 l 7.9871,-2.82252 41.5,0.23799 c 22.825,0.1309 46.5625,0.51279 52.75,0.84865 l 11.25,0.61066 0,10.84233 c 0,6.55256 -0.41901,11.1013 -1.05905,11.49686 -1.18276,0.73099 -0.97386,5.32909 0.32391,7.12941 0.54336,0.75378 0.11487,1.39619 -1.21221,1.81739 -2.62226,0.83227 -2.65319,3.19133 -0.0526,4.01671 1.72232,0.54664 2,1.51303 2,6.9604 -5e-5,6.82685 -0.56129,7.5396 -5.93695,7.5396 -2.50312,0 -3.02396,0.65766 -5.34581,6.75 -1.41486,3.7125 -3.71938,9.45 -5.12115,12.75 -1.40177,3.3 -2.55935,7.00136 -2.5724,8.22525 -0.0211,1.97761 0.26171,2.11672 2.54136,1.25 2.98888,-1.13637 13.47331,-1.28375 14.9349,-0.20994 0.55,0.40408 0.97748,4.10969 0.94995,8.23469 -0.0629,9.42721 -0.17138,10.0507 -1.69995,9.77252 -0.6875,-0.12512 -28.62401,-0.46262 -62.08113,-0.75 z M 625.03221,318.8916 c 0.63724,-1.94067 5.75621,-2.22206 5.75621,-0.31642 0,1.08321 -0.95115,1.56642 -3.08333,1.56642 -2.01891,0 -2.94164,-0.43152 -2.67288,-1.25 z"
         id="path7982"
         inkscape:connector-curvature="0"
         sodipodi:nodetypes="sssssscsssscsssscssssssssssssscsscsssssssssssssssssss" />
      <path
         style="fill:#680704"
         d="m 637.45729,429.16412 c -58.50205,-0.50251 -60.88485,-0.59601 -62.2341,-2.4419 -1.31452,-1.79838 -1.51925,-1.81414 -3.24761,-0.25 -2.1567,1.95179 -4.31864,2.1379 -5.94478,0.51176 -0.87682,-0.87682 -1.53885,-0.84122 -2.72931,0.14678 -1.32516,1.09978 -1.96974,0.93045 -4.10923,-1.0795 l -2.53753,-2.38388 -1.75126,2.3217 c -1.67186,2.21643 -2.12604,2.28901 -10.0169,1.60068 -6.30246,-0.54977 -8.38603,-1.10426 -8.77257,-2.33459 -1.26342,-4.02144 -2.7955,-6.0517 -5.77934,-7.6586 -3.74381,-2.01618 -6.03599,-1.58864 -6.042,1.12695 -0.004,1.7726 -0.82677,1.91808 -10.84917,1.91808 -10.24805,0 -13.48152,-0.75316 -10.67642,-2.4868 0.87882,-0.54314 0.91576,-0.96043 0.12811,-1.44722 -2.87957,-1.77967 -0.42538,-2.42054 7.20683,-1.88192 8.40783,0.59334 10.4459,0.1385 18.68641,-4.17038 9.82666,-5.13825 24.80538,-6.73206 61.13496,-6.50506 19.05004,0.11903 27.84436,-0.16615 28.30902,-0.91798 0.8397,-1.35866 1.19309,-1.33495 -17.19881,-1.15393 -8.39016,0.0826 -22.56516,-0.3088 -31.5,-0.86973 -21.65207,-1.35931 -27.61338,-1.4643 -31.55565,-0.55574 l -3.31048,0.76295 3.5836,-6.63709 3.5836,-6.6371 -5.52312,0 c -7.00384,0 -7.1206,-1.14007 -1.04439,-10.19758 5.3035,-7.90565 13.36279,-16.0031 21.29306,-21.39387 3.15051,-2.14163 6.96473,-5.09909 8.47604,-6.57212 3.53284,-3.44337 15.89103,-9.3043 25.0761,-11.89245 7.62588,-2.1488 26.23354,-3.73161 29.32688,-2.49461 1.01705,0.40672 19.21459,0.73838 40.43898,0.73702 21.22438,-10e-4 39.17651,0.36016 39.89362,0.80336 l 2.01661,38.55859 c 0,6.91313 0.0552,6.85139 -6.85999,7.6717 -1.9638,0.23296 -2.84281,1.60716 -5.236,8.18575 -1.58181,4.34818 -3.60763,8.71422 -4.50183,9.7023 -0.8942,0.98808 -1.80243,4.05757 -2.01829,6.82109 l -0.39247,5.02458 2.56939,-0.97688 c 2.99225,-1.13765 13.47658,-1.28613 14.93919,-0.21157 0.55,0.40408 0.97748,4.10969 0.94995,8.23469 -0.0629,9.42721 -0.17138,10.0507 -1.69995,9.77252 -0.6875,-0.12512 -28.62401,-0.46262 -62.08113,-0.75 z m 20.33113,-26.02252 c 0,-0.62963 -6.66667,-1 -18,-1 -11.33333,0 -18,0.37037 -18,1 0,0.62963 6.66667,1 18,1 11.33333,0 18,-0.37037 18,-1 z m -149.93393,3.70019 c -0.64694,-1.96026 -2.17262,-3.88334 -3.595,-4.53142 -1.35909,-0.61924 -2.47107,-1.81054 -2.47107,-2.64733 0,-2.21793 4.25501,-1.90215 7.0516,0.52331 1.29669,1.12462 3.27804,1.97481 4.40301,1.88931 4.33164,-0.32919 4.674,-0.0293 4.35576,3.81594 -0.30002,3.62496 -0.44891,3.7601 -4.46537,4.05286 -3.93777,0.28702 -4.21377,0.1248 -5.27893,-3.10267 z M 625.03221,318.8916 c 0.63724,-1.94067 5.75621,-2.22206 5.75621,-0.31642 0,1.08321 -0.95115,1.56642 -3.08333,1.56642 -2.01891,0 -2.94164,-0.43152 -2.67288,-1.25 z"
         id="path7980"
         inkscape:connector-curvature="0"
         sodipodi:nodetypes="cssssscsssscsssssssssscccsssssscccsssscssssccsssssssssssssssss" />
      <path
         style="fill:#191612"
         d="m 637.45729,429.16412 c -58.50205,-0.50251 -60.88485,-0.59601 -62.2341,-2.4419 -1.31452,-1.79838 -1.51925,-1.81414 -3.24761,-0.25 -2.1567,1.95179 -4.31864,2.1379 -5.94478,0.51176 -0.87682,-0.87682 -1.53885,-0.84122 -2.72931,0.14678 -1.32516,1.09978 -1.96974,0.93045 -4.10923,-1.0795 l -2.53753,-2.38388 -1.75126,2.3217 c -1.67186,2.21643 -2.12604,2.28901 -10.0169,1.60068 -6.30246,-0.54977 -8.38603,-1.10426 -8.77257,-2.33459 -1.19316,-3.79778 -2.69885,-5.97538 -4.97335,-7.19265 -4.12747,-2.20896 -0.68115,-2.71791 13.14777,-1.94165 7.62975,0.42828 14.12367,0.34063 15.72013,-0.21218 1.83735,-0.63623 3.90921,-0.54948 6.38409,0.26731 2.01518,0.66507 9.11613,1.32867 15.77987,1.47466 l 12.11591,0.26545 2.69363,-2.88726 c 1.48149,-1.58799 3.58685,-2.88725 4.67857,-2.88725 1.85099,0 2.73577,0.6639 5.83838,4.38089 1.00705,1.20647 6.17638,1.45239 30.74722,1.46274 16.24515,0.007 32.03564,-0.24548 35.08998,-0.56072 5.12828,-0.52928 5.69917,-0.84907 7.45859,-4.17803 1.1291,-2.13636 1.92324,-2.90207 1.94943,-1.87963 0.0368,1.43568 0.47474,1.56156 2.6093,0.75 2.98888,-1.13637 13.47331,-1.28375 14.9349,-0.20994 0.55,0.40408 0.97748,4.10969 0.94995,8.23469 -0.0629,9.42721 -0.17138,10.0507 -1.69995,9.77252 -0.6875,-0.12512 -28.62401,-0.46262 -62.08113,-0.75 z M 502.06538,419.7798 c -0.29326,-0.474 0.0225,-1.20525 0.70169,-1.625 0.87882,-0.54314 0.91576,-0.96043 0.12811,-1.44722 -2.88718,-1.78437 -0.32608,-2.39413 8.14324,-1.93878 12.67344,0.68139 13.50046,0.90464 13.36418,3.60776 -0.11126,2.20713 -0.39146,2.26504 -10.95911,2.26504 -5.9647,0 -11.08486,-0.38781 -11.37811,-0.8618 z m 5.77166,-12.99087 c -0.63105,-1.9121 -2.16823,-3.83643 -3.57755,-4.47856 -1.35909,-0.61924 -2.47107,-1.81054 -2.47107,-2.64733 0,-2.22845 4.26034,-1.89753 7.0825,0.55012 1.44766,1.25554 3.28993,1.89924 4.67688,1.63411 2.93528,-0.56112 3.49275,0.43343 2.67783,4.77732 -0.59689,3.18172 -0.97545,3.51701 -3.97095,3.51701 -2.86978,0 -3.45865,-0.44691 -4.41764,-3.35267 z m 22.95138,-21.44507 c 0,-0.49338 2.96555,-4.37267 6.59011,-8.62063 7.92396,-9.28682 20.02385,-18.54041 30.90989,-23.63882 20.26825,-9.49251 24.07848,-9.94281 84.13099,-9.94281 l 49.36901,0 5e-5,32.56739 -0.75,6.45598 c -0.4125,0.0129 -33.15,0.15938 -72.75,0.32562 -45.2079,0.18977 -74.41879,0.70252 -78.50005,1.37795 -10.84222,1.79433 -19,2.42777 -19,1.47532 z m 94.24379,-66.45226 c 0.63724,-1.94067 5.75621,-2.22206 5.75621,-0.31642 0,1.08321 -0.95115,1.56642 -3.08333,1.56642 -2.01891,0 -2.94164,-0.43152 -2.67288,-1.25 z"
         id="path7978"
         inkscape:connector-curvature="0"
         sodipodi:nodetypes="sssssscsssssssscsssssscsssssscssssssssssssssssscccsssssss" />
    </g>
  </g>
</svg>
