<?xml version="1.0" encoding="UTF-8" standalone="no"?>
<!-- Created with Inkscape (http://www.inkscape.org/) -->

<svg
   xmlns:dc="http://purl.org/dc/elements/1.1/"
   xmlns:cc="http://creativecommons.org/ns#"
   xmlns:rdf="http://www.w3.org/1999/02/22-rdf-syntax-ns#"
   xmlns:svg="http://www.w3.org/2000/svg"
   xmlns="http://www.w3.org/2000/svg"
   xmlns:sodipodi="http://sodipodi.sourceforge.net/DTD/sodipodi-0.dtd"
   xmlns:inkscape="http://www.inkscape.org/namespaces/inkscape"
   version="1.0"
   width="545"
   height="545"
   id="svg2172"
   sodipodi:version="0.32"
   inkscape:version="0.48.4 r9939"
   sodipodi:docname="pytrain_logo.svg"
   inkscape:output_extension="org.inkscape.output.svg.inkscape">
  <metadata
     id="metadata21">
    <rdf:RDF>
      <cc:Work
         rdf:about="">
        <dc:format>image/svg+xml</dc:format>
        <dc:type
           rdf:resource="http://purl.org/dc/dcmitype/StillImage" />
        <dc:title></dc:title>
      </cc:Work>
    </rdf:RDF>
  </metadata>
  <sodipodi:namedview
     inkscape:window-height="824"
     inkscape:window-width="1392"
     inkscape:pageshadow="2"
     inkscape:pageopacity="0.0"
     guidetolerance="10.0"
     gridtolerance="10.0"
     objecttolerance="10.0"
     borderopacity="1.0"
     bordercolor="#666666"
     pagecolor="#ffffff"
     id="base"
     showgrid="false"
     inkscape:zoom="0.3950122"
     inkscape:cx="169.55296"
     inkscape:cy="89.908617"
     inkscape:window-x="24"
     inkscape:window-y="24"
     inkscape:current-layer="layer5"
     inkscape:snap-bbox="true"
     inkscape:object-nodes="true"
     inkscape:window-maximized="1"
     inkscape:snap-nodes="false"
     fit-margin-top="0"
     fit-margin-left="0"
     fit-margin-right="0"
     fit-margin-bottom="0" />
  <defs
     id="defs2174">
    <inkscape:perspective
       sodipodi:type="inkscape:persp3d"
       inkscape:vp_x="0 : 30.151802 : 1"
       inkscape:vp_y="0 : 1000 : 0"
       inkscape:vp_z="128 : 30.151802 : 1"
       inkscape:persp3d-origin="64 : 20.101201 : 1"
       id="perspective23" />
  </defs>
  <g
     transform="translate(2.0916957,359.89912)"
     id="layer2"
     style="display:inline" />
  <g
     transform="translate(2.0916957,359.89912)"
     id="layer3"
     style="display:inline" />
  <g
     inkscape:groupmode="layer"
     id="layer1"
     inkscape:label="Pi"
     style="display:inline"
     transform="translate(2.2376117,389.33395)"
     sodipodi:insensitive="true">
    <g
       transform="matrix(0.57143685,0,0,0.57143685,92.040019,-322.26637)"
       id="g4140">
      <path
         style="fill:#000000"
         inkscape:connector-curvature="0"
         id="path4106"
         d="m 158.38,1.6562 c -3.6193,0.11232 -7.5172,1.4493 -11.938,4.9375 -10.83,-4.1763 -21.33,-5.6271 -30.72,2.8751 C 101.222,7.588 96.51,11.469 92.94,16 89.757,15.934 69.121,12.728 59.658,26.844 35.877,24.03 28.361,40.832 36.877,56.5 c -4.8569,7.519 -9.8895,14.947 1.4688,29.281 -4.018,7.9835 -1.5274,16.644 7.9375,27.125 -2.4979,11.223 2.4121,19.141 11.219,25.312 -1.6471,15.358 14.084,24.287 18.781,27.469 1.8037,8.9487 5.5629,17.393 23.531,22.062 2.9632,13.336 13.762,15.639 24.219,18.438 -34.562,20.09 -64.201,46.523 -64,111.38 l -5.0625,9.0312 c -39.63,24.1 -75.285,101.56 -19.53,164.52 3.6419,19.708 9.7496,33.864 15.188,49.531 8.1338,63.131 61.218,92.692 75.219,96.188 20.517,15.628 42.368,30.457 71.938,40.844 27.875,28.749 58.074,39.706 88.438,39.688 0.44515,-2.8e-4 0.89853,0.005 1.3438,0 30.364,0.0189 60.562,-10.938 88.438,-39.688 29.569,-10.387 51.421,-25.216 71.938,-40.844 14.001,-3.4959 67.085,-33.057 75.219,-96.188 5.4379,-15.667 11.546,-29.823 15.188,-49.531 55.754,-62.965 20.1,-140.43 -19.531,-164.53 l -5.07,-9.03 c 0.20067,-64.852 -29.438,-91.285 -64,-111.38 10.457,-2.7984 21.256,-5.1014 24.219,-18.438 17.968,-4.6698 21.728,-13.114 23.531,-22.062 4.6978,-3.1813 20.428,-12.111 18.781,-27.469 8.8067,-6.1716 13.717,-14.09 11.219,-25.312 9.4649,-10.481 11.956,-19.141 7.9375,-27.125 11.36,-14.328 6.32,-21.756 1.47,-29.275 8.51,-15.668 1,-32.47 -22.79,-29.656 -9.46,-14.116 -30.09,-10.91 -33.28,-10.844 -3.57,-4.531 -8.28,-8.412 -22.78,-6.5312 -9.39,-8.5022 -19.89,-7.0514 -30.72,-2.875 -12.86,-10.148 -21.37,-2.0133 -31.09,1.0624 -15.57,-5.0877 -19.13,1.881 -26.78,4.7188 -16.98,-3.5881 -22.14,4.224 -30.28,12.469 l -9.4688,-0.1875 c -25.611,15.093 -38.334,45.826 -42.844,61.625 -4.5121,-15.802 -17.206,-46.535 -42.812,-61.625 l -9.4688,0.1875 c -8.15,-8.245 -13.31,-16.057 -30.29,-12.469 -7.65,-2.8378 -11.2,-9.8065 -26.78,-4.7188 -6.3797,-2.0185 -12.247,-6.2144 -19.156,-6 z" />
      <path
         style="fill:#75a928"
         inkscape:connector-curvature="0"
         id="path4108"
         d="m 107.39,68.056 c 67.948,35.031 107.45,63.369 129.09,87.504 -11.082,44.418 -68.896,46.445 -90.036,45.199 4.3284,-2.0147 7.9399,-4.4278 9.2205,-8.1357 -5.3045,-3.7698 -24.113,-0.39719 -37.244,-7.7742 5.0441,-1.045 7.4035,-2.063 9.7629,-5.7854 -12.406,-3.9567 -25.769,-7.3664 -33.628,-13.921 4.2413,0.0524 8.2012,0.9488 13.74,-2.8927 -11.112,-5.9882 -22.969,-10.734 -32.181,-19.887 5.7452,-0.14063 11.939,-0.0568 13.74,-2.1695 -10.17,-6.3007 -18.751,-13.308 -25.854,-20.972 8.04,0.97052 11.435,0.13478 13.379,-1.2656 -7.6878,-7.8742 -17.418,-14.523 -22.057,-24.226 5.9696,2.0575 11.431,2.8451 15.368,-0.1808 -2.6124,-5.8935 -13.805,-9.3696 -20.249,-23.142 6.2844,0.60938 12.95,1.3711 14.283,0 -2.917,-11.884 -7.922,-18.565 -12.831,-25.487 13.45,-0.2 33.828,0.052 32.905,-1.085 l -8.3165,-8.4973 c 13.138,-3.5372 26.581,0.56816 36.34,3.6159 4.3819,-3.4577 -0.0776,-7.83 -5.4238,-12.294 11.165,1.4906 21.254,4.0574 30.373,7.5934 4.8724,-4.3993 -3.1639,-8.7987 -7.051,-13.198 17.249,3.2726 24.557,7.8707 31.82,12.475 5.2694,-5.0508 0.30166,-9.3433 -3.2543,-13.74 13.006,4.817 19.705,11.036 26.758,17.175 2.3912,-3.2271 6.0749,-5.5924 1.6272,-13.379 9.2342,5.3227 16.189,11.595 21.334,18.622 5.7134,-3.6379 3.4039,-8.613 3.4351,-13.198 9.5966,7.8065 15.687,16.114 23.142,24.226 1.5017,-1.0934 2.8166,-4.8017 3.9775,-10.667 22.895,22.212 55.246,78.158 8.3165,100.34 -39.94,-32.94 -87.64,-56.883 -140.5,-74.844 z" />
      <path
         style="fill:#75a928"
         inkscape:connector-curvature="0"
         id="path4110"
         d="m 467.92,68.056 c -67.94,35.034 -107.44,63.364 -129.08,87.504 11.082,44.418 68.896,46.445 90.036,45.199 -4.3284,-2.0147 -7.9399,-4.4278 -9.2205,-8.1357 5.3045,-3.7698 24.113,-0.39719 37.244,-7.7742 -5.0441,-1.045 -7.4035,-2.063 -9.7629,-5.7854 12.406,-3.9567 25.769,-7.3664 33.628,-13.921 -4.2413,0.0524 -8.2012,0.9488 -13.74,-2.8927 11.112,-5.9882 22.969,-10.734 32.181,-19.887 -5.7452,-0.14063 -11.939,-0.0568 -13.74,-2.1695 10.17,-6.3007 18.751,-13.308 25.854,-20.972 -8.04,0.97052 -11.435,0.13478 -13.379,-1.2656 7.6878,-7.8742 17.418,-14.523 22.057,-24.226 -5.9696,2.0575 -11.431,2.8451 -15.368,-0.1808 2.6124,-5.8935 13.805,-9.3696 20.249,-23.142 -6.2844,0.60938 -12.95,1.3711 -14.283,0 2.9223,-11.889 7.9275,-18.57 12.836,-25.492 -13.45,-0.19973 -33.828,0.05235 -32.905,-1.0848 l 8.3165,-8.4973 c -13.138,-3.5372 -26.581,0.56816 -36.34,3.6159 -4.3819,-3.4577 0.0776,-7.83 5.4238,-12.294 -11.165,1.4906 -21.254,4.0574 -30.373,7.5934 -4.8724,-4.3993 3.1639,-8.7987 7.051,-13.198 -17.249,3.2726 -24.557,7.8707 -31.82,12.475 -5.2694,-5.0508 -0.30166,-9.3433 3.2543,-13.74 -13.006,4.817 -19.705,11.036 -26.758,17.175 -2.3912,-3.2271 -6.0749,-5.5924 -1.6272,-13.379 -9.2342,5.3227 -16.189,11.595 -21.334,18.622 -5.7134,-3.6379 -3.4039,-8.613 -3.4351,-13.198 -9.5966,7.8065 -15.687,16.114 -23.142,24.226 -1.5017,-1.0934 -2.8166,-4.8017 -3.9775,-10.667 -22.895,22.212 -55.246,78.158 -8.3165,100.34 39.919,-32.947 87.616,-56.888 140.48,-74.849 z" />
      <path
         style="fill:#bc1142"
         inkscape:connector-curvature="0"
         id="path4112"
         transform="matrix(1.131107,0,0,1.1280497,-43.139135,-68.310983)"
         d="m 365.2,521.85 a 71.956,66.532 0 1 1 -143.91,0 71.956,66.532 0 1 1 143.91,0 z" />
      <path
         style="fill:#bc1142"
         inkscape:connector-curvature="0"
         id="path4114"
         transform="matrix(0.76741684,-1.1613112,2.171115,1.4224368,-560.88858,217.68859)"
         d="m 262.84,276.65 a 61.875,28.125 0 1 1 -123.75,0 61.875,28.125 0 1 1 123.75,0 z" />
      <path
         style="fill:#bc1142"
         inkscape:connector-curvature="0"
         id="path4116"
         transform="matrix(-0.76741684,-1.1613112,-2.171115,1.4224368,1134.8288,213.68859)"
         d="m 262.84,276.65 a 61.875,28.125 0 1 1 -123.75,0 61.875,28.125 0 1 1 123.75,0 z" />
      <path
         style="fill:#bc1142"
         inkscape:connector-curvature="0"
         id="path4118"
         d="M 72.91,342.09 C 109.32,332.33 85.202,492.72 55.577,479.56 22.99,453.35 12.494,376.59 72.91,342.09 z" />
      <path
         style="fill:#bc1142"
         inkscape:connector-curvature="0"
         id="path4120"
         d="M 493.68,340.09 C 457.266,330.3331 481.388,490.73 511.013,477.57 543.6,451.357 554.096,374.59 493.68,340.09 z" />
      <path
         style="fill:#bc1142"
         inkscape:connector-curvature="0"
         id="path4122"
         d="m 369.97,220.65 c 62.835,-10.61 115.12,26.722 113.01,94.858 -2.0669,26.121 -136.16,-90.969 -113.01,-94.858 z" />
      <path
         style="fill:#bc1142"
         inkscape:connector-curvature="0"
         id="path4124"
         d="M 196.36,218.65 C 133.52,208.04 81.24,245.38 83.35,313.51 85.417,339.63 219.51,222.54 196.36,218.65 z" />
      <path
         style="fill:#bc1142"
         inkscape:connector-curvature="0"
         id="path4126"
         d="m 286.62,202.76 c -37.503,-0.97548 -73.495,27.834 -73.582,44.544 -0.10462,20.304 29.651,41.093 73.837,41.62 45.123,0.32321 73.916,-16.64 74.061,-37.594 0.16484,-23.74 -41.039,-48.937 -74.317,-48.571 z" />
      <path
         style="fill:#bc1142"
         inkscape:connector-curvature="0"
         id="path4128"
         d="m 288.91,619.12 c 32.697,-1.4271 76.571,10.532 76.657,26.396 0.5427,15.405 -39.79,50.211 -78.826,49.538 -40.427,1.7439 -80.069,-33.116 -79.55,-45.199 -0.60506,-17.716 49.226,-31.548 81.719,-30.735 z" />
      <path
         style="fill:#bc1142"
         inkscape:connector-curvature="0"
         id="path4130"
         d="m 168.14,525.1 c 23.279,28.046 33.891,77.319 14.464,91.844 -18.379,11.088 -63.012,6.5216 -94.736,-39.052 -21.395,-38.242 -18.638,-77.157 -3.6159,-88.589 22.464,-13.684 57.173,4.799 83.889,35.797 z" />
      <path
         style="fill:#bc1142"
         inkscape:connector-curvature="0"
         id="path4132"
         d="m 405.02,516.21 c -25.187,29.502 -39.212,83.31 -20.838,100.64 17.568,13.464 64.729,11.582 99.566,-36.756 25.296,-32.465 16.82,-86.682 2.3708,-101.08 -21.464,-16.602 -52.277,4.6449 -81.099,37.188 z" />
    </g>
  </g>
  <g
     inkscape:groupmode="layer"
     id="layer5"
     inkscape:label="shadow"
     transform="translate(2.2376117,389.33395)"
     sodipodi:insensitive="true">
    <path
       style="fill:#ffffff;fill-opacity:1;stroke:none"
       d="m 333.83018,-262.39268 c -43.65148,1.84958 -82.69517,27.83486 -109.31584,60.96544 -16.04761,20.58531 -29.91506,43.28738 -38.52791,67.97206 0.32349,4.3984 -5.29637,1.94017 -7.71523,3.68886 -72.00044,16.64825 -143.954561,33.481179 -215.941023,50.186143 47.914612,31.175417 95.794412,62.404531 143.781253,93.46875 9.95881,-3.931469 19.93729,-7.813058 29.90625,-11.71875 -9.55524,10.746592 -18.62585,21.93867 -27.84375,32.999997 54.92043,23.55746 109.95635,46.84471 164.875,70.40625 39.62116,-73.879957 85.7916,-146.420791 152.375,-198.499997 42.32732,-33.139163 92.19235,-54.924093 142.375,-73.625003 -10.98083,-4.62835 -18.73196,-17.35476 -14.65625,-29.09375 0.44978,-10.79413 -9.95816,-18.80175 -20.09514,-18.99254 -8.65471,-2.16444 -17.72615,-4.19895 -24.93611,-9.44496 -7.24869,3.73914 -13.81222,-4.03109 -21.15478,-3.78496 -43.48298,-11.10497 -85.6703,-28.3472 -130.34522,-34.34004 -7.58608,-0.34541 -15.19185,-0.38677 -22.78125,-0.1875 z"
       id="path4028-0"
       inkscape:connector-curvature="0" />
  </g>
  <g
     inkscape:groupmode="layer"
     id="layer4"
     inkscape:label="train"
     transform="translate(2.2376117,389.33395)"
     sodipodi:insensitive="true">
    <path
       style="fill:#00ff00;fill-opacity:1;stroke:none"
       d="M 542.84432,-172.03577 528.02239,-197.18527 -2.2376117,-73.66917 107.85283,-2.06564 z"
       id="path4028"
       inkscape:connector-curvature="0"
       sodipodi:nodetypes="ccccc" />
    <path
       style="fill:#ff0000;fill-opacity:1;stroke:none"
       d="m 542.84432,-172.03577 -14.82193,-25.1495 C 391.18887,-166.09971 253.08747,-118.5033 131.12398,29.50044 L 267.1528,87.4388 c 92.44613,-170.42398 172.66596,-218.9959 275.69152,-259.47457 z"
       id="path3258"
       inkscape:connector-curvature="0"
       sodipodi:nodetypes="ccccc" />
    <path
       inkscape:connector-curvature="0"
       d="m 538.91359,-198.5669 -161.0726,-46.68042 c -14.9865,-4.49595 -57.26172,-6.31537 -81.56502,5.12067 -28.16017,13.25092 -51.93825,33.65014 -66.56874,54.86436 -14.63049,21.21421 -30.35828,50.47521 -31.45556,59.25351 -1.09729,8.77829 4.96088,23.33909 17.92235,27.43218 13.89897,4.38914 45.33031,5.69014 96.19551,-1.82881 32.30777,-4.77578 226.40689,-76.81011 226.40689,-76.81011 l 0.13717,-21.35138 z"
       id="path3335"
       style="fill:#ffffff;fill-rule:evenodd;stroke:#000000;stroke-width:1.53620195;stroke-linecap:butt;stroke-linejoin:miter;stroke-miterlimit:4;stroke-opacity:1;stroke-dasharray:none" />
    <path
       inkscape:connector-curvature="0"
       d="m 378.12445,-207.97871 c -20.08681,0.2534 -50.54351,19.28117 -73.8497,40.59733 -1.06251,0.97179 -0.74615,1.87676 0.94412,1.5362 8.89266,-1.79166 33.51036,-5.57855 44.27782,-6.25682 16.00416,-1.00814 50.06699,-3.43581 84.93917,-5.98478 l 0,-24.43522 c -26.01344,-2.80827 -48.34825,-5.12176 -54.40716,-5.42471 -0.62579,-0.0314 -1.25629,-0.0402 -1.90425,-0.032 z m 63.35233,3.32843 c -1.8237,0 -3.28043,5.09324 -3.28043,11.42551 l 0,5.68074 c 0,6.33226 1.45673,11.4255 3.28043,11.4255 1.8237,0 3.29643,-5.09324 3.29643,-11.4255 l 0,-5.68074 c 0,-6.33226 -1.47274,-11.42551 -3.29643,-11.42551 z m 6.12881,3.56847 0,22.0189 c 27.00052,-1.98221 50.09154,-3.68647 67.38485,-4.97666 l 0,-9.55325 c -17.88846,-2.01352 -41.53136,-4.66567 -67.38485,-7.48899 z m 69.2411,7.69702 0,9.2012 c 3.59283,-0.2682 4.23588,-0.30914 7.15294,-0.52806 l 0,-7.85704 c -2.93242,-0.33052 -3.69644,-0.42669 -7.15294,-0.8161 z m 10.64139,1.20015 0,7.20095 c 4.99732,-0.37565 11.10546,-0.83211 11.10546,-0.83211 l 0,-5.12067 c 0,0 -6.09522,-0.68516 -11.10546,-1.24817 z"
       id="path4309"
       style="fill:#000000;fill-opacity:1;fill-rule:evenodd;stroke:none;display:inline" />
    <path
       inkscape:connector-curvature="0"
       d="m 538.05514,-183.4924 c -1.39193,0.0284 -2.4889,0.15508 -2.88591,0.17347 -1.42889,0.0662 -2.74272,0.74178 -3.05654,1.0556 -0.6348,0.6348 -0.14493,0.87021 2.5767,0.77628 1.04106,-0.0359 2.65732,-0.42961 3.36986,-0.46917 -0.017,-0.79905 -0.007,-0.7358 -0.004,-1.53618 z m -7.8787,1.02104 c -4.49373,0.16484 -8.91949,0.6269 -13.32975,1.16815 l 0,2.59234 c 3.74347,-0.67525 7.83717,-1.40783 11.26548,-1.88824 2.0675,-0.46454 3.18389,-1.9258 2.06427,-1.87225 z m -15.186,1.40818 c -3.71215,0.47041 -7.42453,0.97474 -11.15346,1.37619 -1.97146,0.25772 -8.29237,1.06218 -14.04985,1.79223 -10.27638,1.30305 -11.60778,1.69609 -11.02545,3.28043 0.13786,0.37508 0.24003,1.04955 0.24003,1.4882 0,1.00208 1.09146,0.87528 15.87409,-1.88825 6.05519,-1.13199 8.62985,-1.53389 12.49764,-2.06427 1.65035,-0.22631 4.48304,-0.74469 7.617,-1.31217 l 0,-2.67236 z m -40.72535,5.47272 c -2.85859,0.003 -14.86929,1.23812 -34.69256,3.58448 -2.39391,0.28335 -14.26108,1.6757 -26.37147,3.0884 -12.11039,1.4127 -25.59056,3.03009 -29.95593,3.60047 -4.36538,0.57039 -13.58259,1.73648 -20.48269,2.59234 -23.36715,2.89837 -72.26335,9.41661 -74.5218,9.93731 -0.89673,0.20675 -8.36824,8.69516 -8.84917,10.04933 -0.0939,0.26434 0.59303,0.48006 1.53621,0.48006 1.78495,0 41.92273,-4.6911 59.30379,-6.92891 5.49193,-0.70709 12.40483,-1.5173 15.36202,-1.80824 8.03728,-0.79073 11.81341,-1.32697 19.71459,-2.76837 3.94292,-0.71929 11.20147,-1.99155 16.13012,-2.83237 27.72433,-4.72977 80.80632,-14.14722 82.52285,-14.64192 0.84809,-0.24442 1.54096,-3.34878 0.96013,-4.28857 -0.0312,-0.0504 -0.24772,-0.0645 -0.65609,-0.064 z"
       id="path2283"
       style="fill:#ff0000;display:inline"
       sodipodi:nodetypes="cssscccccccccssssscccsssssssssssssc" />
    <path
       inkscape:connector-curvature="0"
       d="m 336.87561,-228.60513 c -4.18863,3.40929 -43.34285,38.95369 -51.20674,42.61132 -7.86389,3.65762 -30.72404,9.14405 -42.42843,8.41253 -11.7044,-0.73153 -15.17914,-1.90456 -16.27643,-3.5505 18.68814,-28.54376 45.83819,-47.21248 67.84892,-58.28552 15.5449,-2.9261 35.8763,-0.57197 39.31946,1.85099 4.93779,3.47475 5.60022,6.63575 2.74322,8.96118 z"
       id="path5308"
       style="fill:#000000;fill-rule:evenodd;stroke:none" />
    <path
       inkscape:connector-curvature="0"
       d="m 259.61306,-142.34552 16.4232,-21.20792 c -9.73291,0.42401 -20.13055,1.98966 -23.14766,4.91402 -3.08445,2.98965 -10.08668,13.1903 -10.08668,13.1903 l 16.81114,3.1036 z"
       id="path7248"
       style="fill:#aaccff;fill-rule:evenodd;stroke:#000000;stroke-width:0.51206732px;stroke-linecap:butt;stroke-linejoin:miter;stroke-opacity:1" />
    <path
       inkscape:connector-curvature="0"
       d="m 208.27441,-149.45793 1.03453,0.25863 c 0,0 4.41222,-7.72731 5.04334,-9.44012 0.39438,-1.07029 0.12932,-1.93974 0.12932,-1.93974 l -6.20719,11.12123 z"
       id="path7252"
       style="fill:#aaccff;fill-rule:evenodd;stroke:#000000;stroke-width:0.51206732px;stroke-linecap:butt;stroke-linejoin:miter;stroke-opacity:1;display:inline" />
    <path
       inkscape:connector-curvature="0"
       d="m 229.61163,-153.07881 c 0.35562,1.06687 -3.75018,9.24615 -4.6554,9.82807 -0.81583,0.52447 -9.17228,-0.80951 -9.82805,-1.81043 -0.61426,-0.93754 4.02123,-9.24918 4.78471,-9.69875 0.70088,-0.4127 9.35386,0.64648 9.69874,1.68112 z"
       id="path7255"
       style="fill:none;stroke:#ff0000;stroke-width:1.02413464;stroke-linecap:butt;stroke-linejoin:miter;stroke-miterlimit:4;stroke-opacity:1;stroke-dasharray:none" />
    <path
       inkscape:connector-curvature="0"
       d="m 205.42944,-144.28527 c 0,0 35.29789,4.95115 44.74352,6.33651 9.69874,1.42248 14.20828,5.52961 15.6473,10.216 1.47535,4.80471 2.45701,24.44083 -3.36223,32.19982"
       id="path7250"
       style="fill:none;stroke:#000000;stroke-width:0.51206732px;stroke-linecap:butt;stroke-linejoin:miter;stroke-opacity:1;display:inline" />
    <path
       inkscape:connector-curvature="0"
       d="m 509.25862,-207.19776 c 2.5025,1.39027 6.48441,5.8491 6.53048,12.41438 l 0.12932,18.4276 c 0.0232,3.31326 -0.26685,5.88964 -1.24745,7.96406"
       id="path11134"
       style="fill:none;stroke:#000000;stroke-width:0.51206732px;stroke-linecap:butt;stroke-linejoin:miter;stroke-opacity:1" />
    <path
       inkscape:connector-curvature="0"
       d="m 525.82082,-192.64647 c -0.5328,0 -0.9584,1.48802 -0.9584,3.33803 l 0,1.65966 c 0,1.85001 0.4256,3.33803 0.9584,3.33803 0.53281,0 0.96307,-1.48802 0.96307,-3.33803 l 0,-1.65966 c 0,-1.85 -0.43026,-3.33803 -0.96307,-3.33803 z"
       id="path11142"
       style="fill:#000000;fill-opacity:1;fill-rule:evenodd;stroke:none;display:inline" />
    <path
       inkscape:connector-curvature="0"
       d="m 524.36767,-174.56632 -6.67287,2.06427 0.19202,2.83237 6.44885,-2.2883 0.032,-2.60834 z m -11.60152,3.52046 -7.77702,2.2403 0.17602,3.88851 7.77702,-2.83238 -0.17602,-3.29643 z m -84.36309,24.91528 c -22.40312,6.50214 -45.35905,11.9115 -68.489,17.20227 -2.55704,0.86915 -14.59404,15.49743 -17.28227,20.29066 30.90692,-9.60128 85.32321,-28.70777 85.32321,-28.70777 l 0.44806,-8.78516 z"
       id="path12118"
       style="fill:#000000;fill-opacity:1;fill-rule:evenodd;stroke:none" />
    <path
       inkscape:connector-curvature="0"
       d="m 266.59615,-112.73204 c 41.12267,-3.36223 124.14387,-22.24244 167.07696,-34.91546 42.93308,-12.67303 105.26365,-31.29461 105.26365,-31.29461"
       id="path12116"
       style="fill:none;stroke:#000000;stroke-width:0.51206732px;stroke-linecap:butt;stroke-linejoin:miter;stroke-opacity:1" />
  </g>
</svg>
